<?xml version="1.0" encoding="UTF-8" standalone="no"?>
<!-- Uploaded to: SVG Repo, www.svgrepo.com, Generator: SVG Repo Mixer Tools -->

<svg
   width="800px"
   height="800px"
   viewBox="0 0 24 24"
   fill="none"
   version="1.1"
   id="svg1"
   sodipodi:docname="linkedin.svg"
   inkscape:version="1.3.2 (1:1.3.2+202311252150+091e20ef0f)"
   xmlns:inkscape="http://www.inkscape.org/namespaces/inkscape"
   xmlns:sodipodi="http://sodipodi.sourceforge.net/DTD/sodipodi-0.dtd"
   xmlns="http://www.w3.org/2000/svg"
   xmlns:svg="http://www.w3.org/2000/svg">
  <defs
     id="defs1" />
  <sodipodi:namedview
     id="namedview1"
     pagecolor="#ffffff"
     bordercolor="#000000"
     borderopacity="0.25"
     inkscape:showpageshadow="2"
     inkscape:pageopacity="0.0"
     inkscape:pagecheckerboard="0"
     inkscape:deskcolor="#d1d1d1"
     inkscape:zoom="0.70533901"
     inkscape:cx="372.87034"
     inkscape:cy="321.83106"
     inkscape:window-width="1850"
     inkscape:window-height="1016"
     inkscape:window-x="70"
     inkscape:window-y="27"
     inkscape:window-maximized="1"
     inkscape:current-layer="svg1" />
  <path
     d="M 22.079523,7.7967081e-4 H 2.0552882 C 1.7971931,-0.01130993 1.539233,0.02761358 1.2961972,0.11534528 1.0531615,0.20307684 0.82982011,0.33787681 0.6389373,0.51202007 0.44806961,0.68617846 0.29341051,0.89627536 0.1838397,1.1302665 0.07426888,1.3642725 0.01191636,1.6175828 3.6670863e-4,1.875708 V 21.944986 C 0.01548613,22.485115 0.23684766,22.999146 0.61898811,23.381182 1.0011286,23.763367 1.5150689,23.984759 2.0552882,23.999908 H 22.079523 c 0.525131,-0.0234 1.020262,-0.25169 1.379197,-0.635826 0.358936,-0.384135 0.553028,-0.893515 0.540729,-1.419096 V 1.875708 C 24.0038,1.6244676 23.956701,1.3750122 23.861156,1.1426111 23.765609,0.91022479 23.623564,0.69979789 23.443721,0.52422958 23.264028,0.3486764 23.050286,0.21170161 22.815695,0.12169004 22.581104,0.03167846 22.330613,-0.00946497 22.079523,7.7967081e-4 Z M 7.5000802,20.010061 H 4.0052137 V 9.315469 H 7.5000802 Z M 5.8351438,7.6954856 C 5.5912682,7.7039904 5.3482625,7.6619619 5.1214111,7.5720553 4.8945448,7.4821487 4.6887225,7.3462989 4.5168892,7.1730405 4.3450408,6.9997822 4.2108708,6.7928651 4.1228242,6.5652788 4.0347625,6.3376925 3.9947292,6.0943568 4.0052137,5.8505561 3.9944292,5.6041156 4.0352725,5.3581549 4.125134,5.1284387 4.2149958,4.8987075 4.3518805,4.6903054 4.5269987,4.5165971 4.7021321,4.3428737 4.911629,4.2076839 5.1420653,4.1196973 5.3725165,4.0316952 5.6188071,3.9928475 5.8651427,4.0056267 6.1090183,3.9971416 6.352024,4.0391508 6.5788754,4.1290569 6.8057417,4.2189632 7.0115639,4.3548133 7.1833973,4.5280716 7.3552457,4.7013301 7.4894157,4.9082471 7.5774622,5.1358334 7.6655237,5.3634197 7.7055577,5.6067555 7.6950721,5.8505561 7.7058516,6.0969967 7.6650129,6.3429573 7.5751522,6.5726735 7.4852907,6.8024047 7.348406,7.0108067 7.1732877,7.1845151 6.9981544,7.3582385 6.7886575,7.4934284 6.5582212,7.581415 6.32777,7.6694166 6.0814794,7.7082652 5.8351438,7.6954856 Z M 20.009602,20.010061 h -3.509865 v -5.849778 c 0,-1.394946 -0.494981,-2.354909 -1.739934,-2.354909 -0.386685,0.0033 -0.763021,0.126141 -1.077109,0.351737 -0.314239,0.225591 -0.55093,0.542829 -0.677824,0.908215 -0.0975,0.273888 -0.138295,0.564728 -0.119996,0.854967 v 6.089768 H 9.4350056 V 9.315469 h 3.4498684 v 1.499943 c 0.306738,-0.563528 0.763171,-1.0312114 1.31905,-1.3515994 0.555879,-0.3202374 1.189454,-0.4806112 1.830829,-0.463377 2.264914,0 3.974849,1.4999884 3.974849,4.6948664 z"
     fill="#000000"
     id="path1"
     style="stroke-width:1.49993" />
</svg>
